<svg xmlns="http://www.w3.org/2000/svg" width="1080" height="1080" xml:space="preserve"><g><path style="stroke:none;stroke-width:1;stroke-dasharray:none;stroke-linecap:butt;stroke-dashoffset:0;stroke-linejoin:miter;stroke-miterlimit:4;fill:#ffc62e;fill-rule:nonzero;opacity:1" vector-effect="non-scaling-stroke" transform="matrix(1.8 0 0 1.8 -352.877 -391.67)" d="m377.299 739.92 24.86-21.554a2.505 2.505 0 0 0-.15-3.916l-12.956-9.626a2.597 2.597 0 0 0-3.24.12c-25.432 19.786-38.425 29.818-38.98 30.108l-13.838 7.19a10.854 10.854 0 0 0-3.62 3.04 10.64 10.64 0 0 0 2.144 15.038l61.292 45.89c.77.572 1.796.675 2.663.26l12.81-6.1c.777-.366 1.214-1.398 1.316-3.084-4.423-12.99-15.665-27.35-22.678-34.151-1.798-1.744-4.89-4.349-9.276-7.823a9.99 9.99 0 0 1-1.633-14.033 9.472 9.472 0 0 1 1.286-1.36z"/><path style="stroke:none;stroke-width:1;stroke-dasharray:none;stroke-linecap:butt;stroke-dashoffset:0;stroke-linejoin:miter;stroke-miterlimit:4;fill:#524f75;fill-rule:nonzero;opacity:1" vector-effect="non-scaling-stroke" transform="matrix(1.8 0 0 1.8 -352.877 -391.67)" d="M345.038 727.05a1996.8 1996.8 0 0 0 7.375-5.672c6.469-4.995 16.035-12.42 28.692-22.263a10.09 10.09 0 0 1 12.416-.305l12.957 9.623a10.003 10.003 0 0 1 .592 15.6l-24.86 21.551a2.498 2.498 0 0 0 .087 3.85c4.568 3.61 7.817 6.355 9.84 8.316 9.658 9.358 20.275 24.544 24.556 37.114l.475 1.396-.09 1.476c-.25 4.12-1.716 7.555-5.575 9.396l-12.81 6.099a10.1 10.1 0 0 1-10.372-1.024l-61.27-45.88a18.13 18.13 0 0 1-3.63-25.603 18.355 18.355 0 0 1 6.12-5.135l13.404-6.966c.637-.472 1.269-.949 2.093-1.573zm45.68-16.444-.204.165c.07-.055.14-.108.204-.165zm-9.01 57.899c-1.577-1.527-4.509-4.004-8.712-7.33a17.483 17.483 0 0 1-.602-26.917l20.175-17.493-4.99-3.704c-27.725 21.564-36.085 28.01-37.291 28.637l-13.84 7.19c-.437.228-.82.55-1.12.942-1.08 1.406-.797 3.384.681 4.483l58.913 44.112 5.952-2.837c-4.209-9.35-12.141-20.275-19.167-27.083z"/><path style="stroke:none;stroke-width:1;stroke-dasharray:none;stroke-linecap:butt;stroke-dashoffset:0;stroke-linejoin:miter;stroke-miterlimit:4;fill:#ffc62e;fill-rule:nonzero;opacity:1" vector-effect="non-scaling-stroke" transform="matrix(1.8 0 0 1.8 -352.824 -391.67)" d="m612.64 747.448-24.295-37.002a2.51 2.51 0 0 0-3.249-.861l-14.29 7.345c-1.407.921-1.724 2.5-.957 3.674l41.252 76.41a10.914 10.914 0 0 0 2.45 3.949 10.69 10.69 0 0 0 15.212.142l54.83-54.33c1.05-1.208.939-2.814-.113-3.736-7.29-6.084-11.187-9.078-11.689-8.986-13.891 2.533-24.765 6.843-32.623 12.938a74.752 74.752 0 0 0-4.008 3.401v-.002a14.985 14.985 0 0 1-22.52-2.942z"/><path style="stroke:none;stroke-width:1;stroke-dasharray:none;stroke-linecap:butt;stroke-dashoffset:0;stroke-linejoin:miter;stroke-miterlimit:4;fill:#524f75;fill-rule:nonzero;opacity:1" vector-effect="non-scaling-stroke" transform="matrix(1.8 0 0 1.8 -352.895 -391.67)" d="m566.702 710.666.332-.217 14.638-7.528a10.005 10.005 0 0 1 12.937 3.41l24.294 37.003a7.493 7.493 0 0 0 11.262 1.469 81 81 0 0 1 4.418-3.742c8.909-6.908 20.884-11.653 35.87-14.386a7.348 7.348 0 0 1 3.751.25c.482.155.902.337 1.311.542.47.242.924.512 1.421.84.727.476 1.616 1.13 2.723 1.98 2.043 1.57 4.91 3.896 8.764 7.115 4.24 3.72 4.508 10.05.829 14.286l-.38.408-54.829 54.329a18.187 18.187 0 0 1-25.86-.24 18.2 18.2 0 0 1-3.91-6.056l-40.908-75.774c-2.827-4.705-1.286-10.66 3.337-13.689zm77.06 42.246c-.88.682-2.089 1.709-3.6 3.065-9.248 8.277-23.462 7.492-31.741-1.756a22.136 22.136 0 0 1-2.04-2.652l-21.84-33.263-5.801 2.982 39.239 72.684.192.55c.165.462.427.881.765 1.226a3.197 3.197 0 0 0 4.565.045l50.953-50.49c-1.291-1.06-2.597-2.101-3.919-3.123-.082-.062-.162-.127-.247-.187-11.404 2.36-20.23 6.041-26.527 10.92z"/><path style="stroke:none;stroke-width:1;stroke-dasharray:none;stroke-linecap:butt;stroke-dashoffset:0;stroke-linejoin:miter;stroke-miterlimit:4;fill:#3d96c8;fill-rule:nonzero;opacity:1" vector-effect="non-scaling-stroke" transform="matrix(1.8 0 0 1.8 -352.86 -391.652)" d="M433.971 510.666c-77.699-6.413-104.805-21.888-110.01-42.765-5.205-20.878 35.475-43.553 109.845-65.302"/><path style="stroke:none;stroke-width:1;stroke-dasharray:none;stroke-linecap:butt;stroke-dashoffset:0;stroke-linejoin:miter;stroke-miterlimit:4;fill:#524f75;fill-rule:nonzero;opacity:1" vector-effect="non-scaling-stroke" transform="matrix(1.8 0 0 1.8 -352.895 -391.67)" d="M436.349 500.666c-69.135-2.075-99.495-13.135-105.157-31.649-4.219-13.802 31.12-37.019 101.588-61.7a7.493 7.493 0 0 0-4.955-14.143c-79.503 27.845-119.039 53.82-110.967 80.224 8.255 27 43.922 39.993 119.039 42.246a7.493 7.493 0 1 0 .452-14.978z"/><path style="stroke:none;stroke-width:1;stroke-dasharray:none;stroke-linecap:butt;stroke-dashoffset:0;stroke-linejoin:miter;stroke-miterlimit:4;fill:#3d96c8;fill-rule:nonzero;opacity:1" vector-effect="non-scaling-stroke" transform="matrix(1.8 0 0 1.8 -352.86 -391.688)" d="M343.122 707.097c28.68 17.62 90.112 29.191 142.217 29.678 21.896.203 61.47-4.545 118.734-14.243 33.989-9.536 58.622-22.166 62.591-71.096 5.767-71.143 6.708-117.51 2.812-139.096-3.15-17.48-8.699-48.068-16.654-91.763-11.426-62.779-65.833-108.382-129.31-108.382h-29.677c-63.056 0-117.228 45.019-129.101 107.283l-28.737 161.435c-2.418 13.581-15.388 22.63-28.967 20.215a25.03 25.03 0 0 1-8.714-3.322l-6.359-3.908c-5.554-2.865-15.52 1.086-19.333 7.018-3.814 5.931 4.323 35.922 10.8 47.181 6.478 11.244 31.016 41.382 59.698 59z"/><path style="stroke:none;stroke-width:1;stroke-dasharray:none;stroke-linecap:butt;stroke-dashoffset:0;stroke-linejoin:miter;stroke-miterlimit:4;fill:#524f75;fill-rule:nonzero;opacity:1" vector-effect="non-scaling-stroke" transform="matrix(1.8 0 0 1.8 -352.877 -391.616)" d="M339.199 713.483c-25.086-15.412-52.122-44.022-62.272-61.66-8.472-14.725-16.21-46.257-10.607-54.97 5.847-9.097 19.895-14.352 29.069-9.626l6.853 4.193a17.483 17.483 0 0 0 26.377-11.821l28.755-161.525c12.545-65.79 69.804-113.372 136.461-113.372h29.676c67.102 0 124.611 48.2 136.682 114.534 7.955 43.7 13.504 74.29 16.656 91.777 4.046 22.454 3.1 69.215-2.722 141.03-2.026 24.998-9.331 42.654-22.314 55.116-10.799 10.365-24.296 16.577-45.722 22.586-58.448 9.94-98.357 14.728-120.827 14.518-55.591-.512-117.064-12.965-146.065-30.78zm-59.942-104.922c.28 3.269 1.044 7.502 2.186 12.155 2.272 9.264 5.72 18.84 8.476 23.635 8.937 15.527 34.234 42.298 57.127 56.36 26.247 16.126 85.244 28.072 138.362 28.567 21.272.195 60.391-4.488 117.021-14.074 19.024-5.362 30.458-10.657 39.01-18.862 10.12-9.718 16.004-23.941 17.755-45.523 5.712-70.473 6.638-116.44 2.907-137.16a63663.29 63663.29 0 0 0-16.654-91.751c-10.774-59.212-62.087-102.22-121.936-102.22h-29.676c-59.452 0-110.54 42.456-121.723 101.104l-28.737 161.432c-3.142 17.653-20.003 29.419-37.656 26.277a32.403 32.403 0 0 1-11.329-4.319l-6.007-3.696c-1.77-.66-7.008 1.296-9.158 4.054-.12 1.21-.1 2.475.032 4.02z"/><path style="stroke:none;stroke-width:1;stroke-dasharray:none;stroke-linecap:butt;stroke-dashoffset:0;stroke-linejoin:miter;stroke-miterlimit:4;fill:#fff;fill-rule:nonzero;opacity:1" vector-effect="non-scaling-stroke" transform="matrix(1.8 0 0 1.8 -352.86 -391.688)" d="M645.87 424.308c5.422 29.51 10.82 59.025 16.193 88.544 3.787 20.827 2.873 65.566-2.737 134.214-3.859 47.211-27.81 59.4-60.868 68.6-55.683 9.358-94.173 13.941-115.467 13.744-14.284-.132-30.213-1.506-46.18-3.639a38.417 38.417 0 0 1 8.374-7.477c24.848-16.37 40.283-63.52 42.714-78.309 4.94-30.058 5.447-66.567 5.117-172.679-.175-56.557 40.438-105.002 96.159-114.7a85.609 85.609 0 0 1 15.18-1.272 127.17 127.17 0 0 1 41.514 72.974z"/><path style="stroke:none;stroke-width:1;stroke-dasharray:none;stroke-linecap:butt;stroke-dashoffset:0;stroke-linejoin:miter;stroke-miterlimit:4;fill:#fff;fill-rule:nonzero;opacity:1" vector-effect="non-scaling-stroke" transform="matrix(1.8 0 0 1.8 -352.877 -391.616)" d="M618.146 419.733c0 25.021 16.225 45.305 36.24 45.305s36.24-20.284 36.24-45.305c0-16.187-6.908-31.143-18.12-39.236-11.213-8.093-25.027-8.093-36.24 0-11.212 8.093-18.12 23.05-18.12 39.236z"/><path style="stroke:none;stroke-width:1;stroke-dasharray:none;stroke-linecap:butt;stroke-dashoffset:0;stroke-linejoin:miter;stroke-miterlimit:4;fill:#524f75;fill-rule:nonzero;opacity:1" vector-effect="non-scaling-stroke" transform="matrix(1.8 0 0 1.8 -352.86 -391.688)" d="M655.902 460.945c21.154 0 37.708-19.813 37.708-43.653 0-23.839-16.556-43.652-37.708-43.652-21.154 0-37.708 19.813-37.708 43.652 0 23.84 16.559 43.653 37.708 43.653zm0-14.986c-12.226 0-22.723-12.567-22.723-28.667 0-16.099 10.502-28.667 22.723-28.667 12.22 0 22.723 12.568 22.723 28.667 0 16.1-10.502 28.667-22.723 28.667z"/><path style="stroke:none;stroke-width:1;stroke-dasharray:none;stroke-linecap:butt;stroke-dashoffset:0;stroke-linejoin:miter;stroke-miterlimit:4;fill:#232323;fill-rule:nonzero;opacity:1" vector-effect="non-scaling-stroke" transform="matrix(1.8 0 0 1.8 -352.895 -391.688)" d="M672.239 424.153c-1.711 2.228-4.226 3.637-7.039 3.637-5.137 0-9.298-4.7-9.298-10.498 0-5.796 4.16-10.497 9.298-10.497 5.073 0 9.196 4.586 9.299 10.285l-6.893 1.132 4.633 5.944z"/><path style="stroke:none;stroke-width:1;stroke-dasharray:none;stroke-linecap:butt;stroke-dashoffset:0;stroke-linejoin:miter;stroke-miterlimit:4;fill:#ffc62e;fill-rule:nonzero;opacity:1" vector-effect="non-scaling-stroke" transform="matrix(1.8 0 0 1.8 -352.86 -391.67)" d="M625.996 530.87c12.843-1.005 23.952-1.377 43.79-15.98 8.272-6.092 23.255-18.332 30.243-26.727 6.618-7.947 4.503-17.55 0-23.916-9.261-13.09-23.113-13.834-38.805-18.735-6.026-1.88-19.935-5.884-37.735-9.268 4.555 13.594 6.566 29.978 6.019 49.152-.475 16.739-1.644 31.896-3.512 45.473z"/><path style="stroke:none;stroke-width:1;stroke-dasharray:none;stroke-linecap:butt;stroke-dashoffset:0;stroke-linejoin:miter;stroke-miterlimit:4;fill:#524f75;fill-rule:nonzero;opacity:1" vector-effect="non-scaling-stroke" transform="matrix(1.8 0 0 1.8 -352.877 -391.652)" d="M636.913 478.248c1.693-14.576 1.82-27.8.36-39.681 9.358 2.967 17.735 6.031 24.42 8.781 1.844.757 3.737 1.486 5.933 2.29.849.313 1.71.622 2.82 1.022l2.702.969c12.947 4.66 17.93 7.722 21.946 14.61 3.077 5.27 2.942 10.873-.932 14.771-6.089 6.137-19.923 16.095-31.04 22.87-12.862 7.84-21.229 10.495-31.853 10.97 2.227-11.212 4.106-23.41 5.644-36.602zm-14.975 51.625 1.636.017c2.232.023 3.416.03 4.782.018 14.796-.123 26.137-3.22 42.566-13.235 12.069-7.353 26.737-17.915 33.877-25.108 9.151-9.224 9.468-22.208 3.235-32.883-6.29-10.767-13.812-15.395-29.816-21.154l-2.718-.974a300.755 300.755 0 0 1-2.712-.984 144.529 144.529 0 0 1-5.4-2.086c-9.845-4.046-23.01-8.684-37.603-12.802-5.51-1.556-10.66 3.396-9.316 8.966 3.132 13.012 3.671 28.64 1.556 46.87-1.903 16.38-4.346 31.114-7.328 44.198a7.493 7.493 0 0 0 7.24 9.157z"/><path style="stroke:none;stroke-width:1;stroke-dasharray:none;stroke-linecap:butt;stroke-dashoffset:0;stroke-linejoin:miter;stroke-miterlimit:4;fill:#fff;fill-rule:nonzero;opacity:1" vector-effect="non-scaling-stroke" transform="matrix(1.8 0 0 1.8 -352.824 -391.688)" d="M540.722 424.728c0 16.186 6.907 31.143 18.12 39.236 11.212 8.093 25.027 8.093 36.24 0 11.212-8.093 18.12-23.05 18.12-39.236 0-16.186-6.908-31.143-18.12-39.236-11.213-8.093-25.028-8.093-36.24 0-11.213 8.093-18.12 23.05-18.12 39.236z"/><path style="stroke:none;stroke-width:1;stroke-dasharray:none;stroke-linecap:butt;stroke-dashoffset:0;stroke-linejoin:miter;stroke-miterlimit:4;fill:#524f75;fill-rule:nonzero;opacity:1" vector-effect="non-scaling-stroke" transform="matrix(1.8 0 0 1.8 -352.877 -391.724)" d="M578.39 478.325c26.749 0 48.166-23.337 48.166-51.817 0-28.482-21.414-51.819-48.166-51.819-26.754 0-48.168 23.337-48.168 51.82 0 28.48 21.414 51.816 48.168 51.816zm0-14.985c-18.172 0-33.182-16.354-33.182-36.832 0-20.48 15.007-36.834 33.182-36.834 18.175 0 33.18 16.354 33.18 36.834 0 20.478-15.01 36.832-33.18 36.832z"/><path style="stroke:none;stroke-width:1;stroke-dasharray:none;stroke-linecap:butt;stroke-dashoffset:0;stroke-linejoin:miter;stroke-miterlimit:4;fill:#232323;fill-rule:nonzero;opacity:1" vector-effect="non-scaling-stroke" transform="matrix(1.8 0 0 1.8 -352.842 -391.67)" d="M599.69 437.987c-2.348 2.967-5.81 4.848-9.679 4.848-7.06 0-12.787-6.266-12.787-13.996s5.727-13.997 12.787-13.997c6.976 0 12.643 6.114 12.78 13.714l-9.478 1.509 6.376 7.922z"/><path style="stroke:none;stroke-width:1;stroke-dasharray:none;stroke-linecap:butt;stroke-dashoffset:0;stroke-linejoin:miter;stroke-miterlimit:4;fill:#524f75;fill-rule:nonzero;opacity:1" vector-effect="non-scaling-stroke" transform="matrix(1.8 0 0 1.8 -352.913 -391.652)" d="M308.816 609.225c12.935 2.697 23.477 3.602 31.769 2.635 8.03-.942 14.238-3.579 19.78-7.712 1.796-1.342 5.85-4.873 6.244-5.158a7.488 7.488 0 0 0 1.676-10.46 7.488 7.488 0 0 0-10.462-1.676c-1.099.795-5.262 4.424-6.419 5.283-3.519 2.625-7.278 4.22-12.565 4.84-6.441.754-15.477-.025-26.969-2.42a7.493 7.493 0 1 0-3.054 14.668z"/><path style="stroke:none;stroke-width:1;stroke-dasharray:none;stroke-linecap:butt;stroke-dashoffset:0;stroke-linejoin:miter;stroke-miterlimit:4;fill:#ffd04f;fill-rule:nonzero;opacity:1" vector-effect="non-scaling-stroke" transform="matrix(1.8 0 0 1.8 -352.824 -391.652)" d="M564.557 345.487c48.273-15.684 79.396-65.03 71.216-90.228-8.186-25.196-57.612 18.564-105.88 34.25-48.268 15.683-114.221 26.392-106.033 51.587 8.19 25.196 92.425 20.073 140.697 4.39z"/><path style="stroke:none;stroke-width:1;stroke-dasharray:none;stroke-linecap:butt;stroke-dashoffset:0;stroke-linejoin:miter;stroke-miterlimit:4;fill:#524f75;fill-rule:nonzero;opacity:1" vector-effect="non-scaling-stroke" transform="matrix(1.8 0 0 1.8 -352.86 -391.742)" d="M564.877 354.21c-25.51 6.835-59.66 10.3-88.26 8.895-34.083-1.675-56.795-9.51-61.195-25.94-3.795-14.166 5.785-24.268 24.578-31.938 12.48-5.095 24.87-8.303 56.087-15.298l4.642-1.042c12.7-2.857 20.746-4.77 28.575-6.868 6.144-1.646 12.64-3.836 19.675-6.585 7.977-3.118 15.784-6.57 27.154-11.884 27.779-12.984 31.492-14.613 40.647-17.05 14.88-3.964 25.752-.793 29.224 12.154 8.742 32.626-31.896 82.365-81.127 95.556zm-3.88-14.474c21.417-5.739 41.158-19.067 55.005-36.019 12.452-15.24 18.183-31.264 15.526-41.18-.813-3.034-2.972-3.663-10.893-1.553-7.854 2.091-11.678 3.77-38.161 16.146-11.64 5.44-19.693 9.003-28.042 12.266-7.523 2.939-14.53 5.3-21.253 7.104-8.072 2.163-16.281 4.114-29.165 7.01l-4.654 1.046c-30.268 6.784-42.32 9.902-53.7 14.547-12.628 5.155-16.962 9.726-15.767 14.187 4.531 16.911 78.483 20.545 131.103 6.446z"/><path style="stroke:none;stroke-width:1;stroke-dasharray:none;stroke-linecap:butt;stroke-dashoffset:0;stroke-linejoin:miter;stroke-miterlimit:4;fill:#fd6b4d;fill-rule:nonzero;opacity:1" vector-effect="non-scaling-stroke" transform="matrix(1.8 0 0 1.8 -352.877 -391.652)" d="M495.947 342.914c32.907-16.515 59.588-47.047 54.36-64.17-5.228-17.125-41.167-44.473-112.316-22.246-71.158 22.231-74.045 89.128-65.86 114.325 8.188 25.196 90.904-11.396 123.816-27.91z"/><path style="stroke:none;stroke-width:1;stroke-dasharray:none;stroke-linecap:butt;stroke-dashoffset:0;stroke-linejoin:miter;stroke-miterlimit:4;fill:#ff8b74;fill-rule:nonzero;opacity:1" vector-effect="non-scaling-stroke" transform="matrix(1.8 0 0 1.8 -352.877 -391.652)" d="M426.144 248.536c20.569 13.441 41.183 26.416 51.956 37.5 9.11 9.375 20.96 26.37 35.544 50.993 2.66 4.495-61.501 37.061-62.89 33.893-10.155-23.15-16.751-41.833-19.782-56.052-3.45-16.162-5.336-44.742-4.828-66.334zm3.206 0c30.731-7.796 55.482-10.704 75.632-9.412 20.15 1.29 36.288 18.559 57.347 37.11l-5.95 31.803c-17.898-21.48-33.182-37.527-45.848-48.14-8.85-7.413-24.746-12.751-47.69-16.018-9.898-1.407-20.972 5.291-33.491 4.656zM415.332 253c-19.227 37.53-26.055 53.945-23.201 70.222 2.853 16.275 8.22 37.508 16.096 63.698l-46.152-6.63c-.217-4.94-3.552-9.288-3.539-13.892.072-26.367 3.922-47.256 11.546-62.662 8.959-18.095 23.135-28.02 45.25-50.736z"/><path style="stroke:none;stroke-width:1;stroke-dasharray:none;stroke-linecap:butt;stroke-dashoffset:0;stroke-linejoin:miter;stroke-miterlimit:4;fill:#524f75;fill-rule:nonzero;opacity:1" vector-effect="non-scaling-stroke" transform="matrix(1.8 0 0 1.8 -352.895 -391.67)" d="M493.997 344.987c33.73-14.767 61.973-43.858 57.646-61.235-4.323-17.376-38.78-46.571-111.004-28.095-72.22 18.474-78.604 85.134-71.75 110.721 6.86 25.59 91.377-6.622 125.108-21.39zm-68.92 40.352c-15.426 3.945-28.485 5.937-39.043 5.55-15.816-.588-27.89-6.715-31.619-20.628-5.033-18.785-3.044-45.183 6.985-67.95 13.097-29.739 38.333-51.655 75.53-61.17 35.76-9.15 66.317-8.215 90.167 1.175 20.602 8.114 35.302 22.59 39.092 37.815 6.63 26.676-25.99 60.991-66.183 78.587-23.786 10.41-51.724 20.688-74.928 26.621z"/><path style="stroke:none;stroke-width:1;stroke-dasharray:none;stroke-linecap:butt;stroke-dashoffset:0;stroke-linejoin:miter;stroke-miterlimit:4;fill:#ffd04f;fill-rule:nonzero;opacity:1" vector-effect="non-scaling-stroke" transform="matrix(1.8 0 0 1.8 -352.86 -391.67)" d="M440.784 241.578a15.197 15.197 0 0 0-10.772-10.75 15.284 15.284 0 0 0-14.73 3.947 15.197 15.197 0 0 0-3.955 14.695 15.197 15.197 0 0 0 10.772 10.75 15.284 15.284 0 0 0 14.73-3.947 15.197 15.197 0 0 0 3.955-14.695z"/><path style="stroke:none;stroke-width:1;stroke-dasharray:none;stroke-linecap:butt;stroke-dashoffset:0;stroke-linejoin:miter;stroke-miterlimit:4;fill:#524f75;fill-rule:nonzero;opacity:1" vector-effect="non-scaling-stroke" transform="matrix(1.8 0 0 1.8 -352.86 -391.67)" d="M431.286 265.035c-10.796 2.893-21.89-3.494-24.779-14.273-2.888-10.779 3.53-21.859 14.323-24.75 10.793-2.893 21.89 3.494 24.778 14.273 2.891 10.778-3.529 21.858-14.322 24.75zm-2.583-9.65a10.23 10.23 0 0 0 7.258-12.515 10.23 10.23 0 0 0-12.543-7.21 10.23 10.23 0 0 0-7.26 12.519 10.23 10.23 0 0 0 12.545 7.206z"/><path style="stroke:none;stroke-width:1;stroke-dasharray:none;stroke-linecap:butt;stroke-dashoffset:0;stroke-linejoin:miter;stroke-miterlimit:4;fill:#3d96c8;fill-rule:nonzero;opacity:1" vector-effect="non-scaling-stroke" transform="matrix(1.8 0 0 1.8 -352.824 -391.634)" d="M401.508 578.095c-77.7-6.413-104.805-21.888-110.01-42.763-5.205-20.874 35.475-43.552 109.845-65.301"/><path style="stroke:none;stroke-width:1;stroke-dasharray:none;stroke-linecap:butt;stroke-dashoffset:0;stroke-linejoin:miter;stroke-miterlimit:4;fill:#524f75;fill-rule:nonzero;opacity:1" vector-effect="non-scaling-stroke" transform="matrix(1.8 0 0 1.8 -352.877 -391.724)" d="M402.727 569.799c-69.02-4.491-98.979-16.6-103.989-35.306-3.736-13.939 32.394-35.91 103.682-58.118a7.493 7.493 0 1 0-4.456-14.306c-80.43 25.058-120.847 49.634-113.702 76.305 7.308 27.274 42.501 41.5 117.49 46.372a7.49 7.49 0 1 0 .975-14.947z"/><path style="stroke:none;stroke-width:1;stroke-dasharray:none;stroke-linecap:butt;stroke-dashoffset:0;stroke-linejoin:miter;stroke-miterlimit:4;fill:#524f75;fill-rule:nonzero;opacity:1" vector-effect="non-scaling-stroke" transform="matrix(1.8 0 0 1.8 -352.842 -391.652)" d="M417.098 579.434a9.99 9.99 0 1 0 19.98 0 9.99 9.99 0 0 0-19.98 0z"/></g></svg>