<?xml version="1.0" encoding="UTF-8" standalone="no" ?>
<!DOCTYPE svg PUBLIC "-//W3C//DTD SVG 1.1//EN" "http://www.w3.org/Graphics/SVG/1.1/DTD/svg11.dtd">
<svg xmlns="http://www.w3.org/2000/svg" xmlns:xlink="http://www.w3.org/1999/xlink" version="1.1" width="1080" height="1080" viewBox="0 0 1080 1080" xml:space="preserve">
<desc>Created with Fabric.js 5.2.4</desc>
<defs>
</defs>
<g transform="matrix(1 0 0 1 540 540)" id="53505729-ff26-40ca-9897-d8e1e4768901"  >
</g>
<g transform="matrix(1 0 0 1 540 540)" id="e03574d0-8b13-49c9-9c53-160d7a1e0b02"  >
<rect style="stroke: none; stroke-width: 1; stroke-dasharray: none; stroke-linecap: butt; stroke-dashoffset: 0; stroke-linejoin: miter; stroke-miterlimit: 4; fill: rgb(255,255,255); fill-rule: nonzero; opacity: 1; visibility: hidden;" vector-effect="non-scaling-stroke"  x="-540" y="-540" rx="0" ry="0" width="1080" height="1080" />
</g>
<g transform="matrix(7.17 0 0 7.17 522.49 540)"  >
<g style="" vector-effect="non-scaling-stroke"   >
		<g transform="matrix(0.25 0 0 0.25 -29.99 58.94)"  >
<path style="stroke: none; stroke-width: 1; stroke-dasharray: none; stroke-linecap: butt; stroke-dashoffset: 0; stroke-linejoin: miter; stroke-miterlimit: 4; fill: rgb(255,198,46); fill-rule: nonzero; opacity: 1;" vector-effect="non-scaling-stroke"  transform=" translate(-368.39, -755.52)" d="M 377.299044 739.919922 L 402.159766 718.3659710000001 C 402.73792257144726 717.8682135545494 403.05774172003987 717.1341200992463 403.0285701256708 716.3717707608907 C 402.9993985313017 715.6094214225352 402.6244159951547 714.9019148243256 402.009912 714.4497950000001 L 389.052566 704.8241950000001 C 388.07727017652616 704.1028236415706 386.7325361779301 704.152590228361 385.81322900000004 704.9440780000001 C 360.38056600000004 724.7297560000001 347.388253 734.7624580000002 346.833795 735.0521760000001 L 332.99481000000003 742.2426540000001 C 331.57988176453756 742.9777259650471 330.34427512196226 744.0154988244532 329.37584400000003 745.2821850000001 C 327.6390746355236 747.550729071247 326.8876454813641 750.4224477661697 327.2907049171369 753.2509107975364 C 327.6937643529098 756.079373828903 329.2174406956077 758.6268872124189 331.518751 760.3200000000002 L 392.811395 806.2101850000001 C 393.580644 806.7821260000002 394.607141 806.8845260000002 395.473795 806.4699320000001 L 408.283785 800.370888 C 409.06052600000004 800.0037470000001 409.49760000000003 798.972254 409.6 797.2864000000001 C 405.17682 784.296585 393.93529800000005 769.9356100000001 386.922146 763.134751 C 385.123902 761.3914530000001 382.031922 758.786497 377.646205 755.31239 C 375.5685738836904 753.6680175804106 374.22927627891727 751.2656464317694 373.92295213546936 748.6337882994026 C 373.61662799202145 746.0019301670358 374.3683707130088 743.3561811064826 376.0128 741.278595 C 376.397424 740.78158 376.82950200000005 740.327024 377.29904400000004 739.919922 z" stroke-linecap="round" />
</g>
		<g transform="matrix(0.25 0 0 0.25 -29.98 58.94)"  >
<path style="stroke: none; stroke-width: 1; stroke-dasharray: none; stroke-linecap: butt; stroke-dashoffset: 0; stroke-linejoin: miter; stroke-miterlimit: 4; fill: rgb(82,79,117); fill-rule: nonzero; opacity: 1;" vector-effect="non-scaling-stroke"  transform=" translate(-368.43, -755.52)" d="M 345.038049 727.04999 C 347.50088275538064 725.1650664414562 349.95932176059677 723.2744076437883 352.41334600000005 721.378029 C 358.882029 716.3829069999999 368.447687 708.9576579999999 381.105327 699.114771 C 384.6837273632046 696.1767504592635 389.8024844977793 696.0511239151458 393.52070199999997 698.810068 L 406.478049 708.433171 C 408.91717835006176 710.240378697812 410.4036351995294 713.0574661393875 410.51873907251576 716.090962924912 C 410.6338429455022 719.1244597104364 409.3651376422952 722.0460898157761 407.069971 724.0329370000001 L 382.209249 745.5843900000001 C 381.6462959159558 746.071767308798 381.33016590900695 746.7849118218712 381.34707353002005 747.5293357255158 C 381.36398115103316 748.2737596291605 381.7121628567251 748.9718160578548 382.296663 749.4331320000001 C 386.864702 753.0446050000002 390.114029 755.7894250000002 392.13705400000003 757.7500100000001 C 401.79512200000005 767.108371 412.412254 782.2935420000001 416.693073 794.863766 L 417.16761 796.259902 L 417.077698 797.735961 C 416.827942 801.856937 415.361874 805.291083 411.50314099999997 807.1317849999999 L 398.69315099999994 813.230829 C 395.31300982786695 814.8375968382304 391.3214785232027 814.4435376538861 388.32077999999996 812.206829 L 327.05061499999994 766.326634 C 323.13909520358794 763.4384912796507 320.5516061518515 759.1002196347673 319.86924210696526 754.286101356092 C 319.18687806207896 749.4719830774167 320.4668338525443 744.5855310279119 323.4216589999999 740.724137 C 325.0596128199295 738.5840033665295 327.14875779562254 736.8308266830985 329.54068299999994 735.589151 L 342.94509299999993 728.623454 C 343.58197099999995 728.151415 344.2138539999999 727.674381 345.03804899999994 727.0499900000001 z M 390.718439 710.606049 L 390.513639 710.770888 C 390.583571 710.715942 390.653502 710.663493 390.718439 710.606049 z M 381.707239 768.504507 C 380.131278 766.978497 377.199141 764.500917 372.995746 761.174166 C 368.91445022950273 757.9431950300115 366.485156016457 753.0616185031747 366.36877980041913 747.8575234664246 C 366.25240358438134 742.6534284296744 368.4610506273155 737.6681362616425 372.39383399999997 734.257951 L 392.56913199999997 716.765034 L 387.579005 713.061151 C 359.853581 734.625092 351.494244 741.071297 350.287922 741.698185 L 336.448937 748.888663 C 336.0105365558442 749.1163806939061 335.62766701236404 749.4378548157617 335.327532 749.830244 C 334.24858600000005 751.236371 334.53081000000003 753.214439 336.009366 754.313366 L 394.921834 798.425288 L 400.873522 795.588059 C 396.66513199999997 786.237191 388.73287799999997 775.312859 381.70723899999996 768.504507 z" stroke-linecap="round" />
</g>
		<g transform="matrix(0.25 0 0 0.25 34.64 59.25)"  >
<path style="stroke: none; stroke-width: 1; stroke-dasharray: none; stroke-linecap: butt; stroke-dashoffset: 0; stroke-linejoin: miter; stroke-miterlimit: 4; fill: rgb(255,198,46); fill-rule: nonzero; opacity: 1;" vector-effect="non-scaling-stroke"  transform=" translate(-626.88, -756.76)" d="M 612.63922 747.447571 L 588.345444 710.4462050000001 C 587.6429874038455 709.3690163795151 586.2400344252479 708.996980243852 585.096117 709.584546 L 570.805073 716.929873 C 569.398946 717.851473 569.081756 719.429932 569.848507 720.603785 L 611.100722 797.014166 C 611.6245026455648 798.4910003727603 612.4601432812001 799.8377364059447 613.550829 800.96281 C 615.5401599508318 803.0157212141094 618.2688758852939 804.1863016204722 621.1274011182398 804.2130519020595 C 623.9859263511858 804.2398021836469 626.7360712313877 803.1204933448325 628.763473 801.105171 L 683.5924289999999 746.7757270000001 C 684.6439019999999 745.5669070000001 684.5315119999999 743.9609760000001 683.4800389999999 743.0393760000001 C 676.1896589999999 736.955317 672.293463 733.9607420000001 671.7914539999999 734.0531510000001 C 657.9000199999999 736.585678 647.025639 740.896468 639.1683119999999 746.9905170000001 C 637.79264404217 748.07705632329 636.4556223505493 749.2116505189747 635.1597269999999 750.392195 L 635.1597269999999 750.3896980000001 C 631.9086838210434 753.2992963340329 627.5510234687507 754.6475766169668 623.2248683727997 754.0823985011284 C 618.8987132768486 753.51722038529 615.0336771119182 751.0947095161562 612.6392199999999 747.447571 z" stroke-linecap="round" />
</g>
		<g transform="matrix(0.25 0 0 0.25 34.63 59.25)"  >
<path style="stroke: none; stroke-width: 1; stroke-dasharray: none; stroke-linecap: butt; stroke-dashoffset: 0; stroke-linejoin: miter; stroke-miterlimit: 4; fill: rgb(82,79,117); fill-rule: nonzero; opacity: 1;" vector-effect="non-scaling-stroke"  transform=" translate(-626.88, -756.76)" d="M 566.70158 710.66599 L 567.033756 710.4487019999999 L 581.671961 702.9210539999999 C 586.2218312457501 700.5830841946768 591.802475647135 702.0536590762925 594.609327 706.3302239999999 L 618.903102 743.334088 C 620.1007179140784 745.1576961004944 622.0336958114411 746.3687404185686 624.1970819727047 746.6508586545893 C 626.3604681339684 746.93297689061 628.539375151607 746.258146467083 630.1646049999999 744.802654 C 631.5922802610246 743.5032889011055 633.0659496363697 742.2553763541118 634.5827899999999 741.0613069999999 C 643.49159 734.1530529999999 655.4673949999999 729.4076869999999 670.4527609999999 726.675356 C 671.7037067438341 726.4318799634754 672.9964703857681 726.5179494038255 674.2040979999999 726.925112 C 674.6861269999999 727.079961 675.1057179999999 727.262283 675.515317 727.467083 C 675.984858 727.709346 676.4394149999999 727.979083 676.936429 728.3062630000001 C 677.663219 728.7832970000001 678.5523509999999 729.437658 679.658771 730.286829 C 681.701776 731.857795 684.568976 734.183024 688.422712 737.40238 C 692.663571 741.121248 692.9308100000001 747.452565 689.2519020000001 751.688429 L 688.8722730000001 752.095532 L 634.0433170000001 806.424976 C 630.5951347151534 809.8470169808392 625.9212103362564 811.7473135659008 621.0634025083327 811.7022730171008 C 616.205594680409 811.6572324683007 611.5677090825087 809.6705987849978 608.1835710000001 806.18521 C 606.4890087277731 804.4473618613414 605.159193359087 802.3881012071889 604.2723900000001 800.128624 L 563.3648390000001 724.3551219999999 C 560.5376000000001 719.6497169999999 562.0785950000001 713.695532 566.70158 710.66599 z M 643.761327 752.912234 C 642.882186 753.594068 641.6733660000001 754.620566 640.1623410000001 755.9767410000001 C 630.9138730000001 764.2536580000001 616.7002530000001 763.4694240000001 608.4208390000001 754.2209560000001 C 607.6747171380017 753.3895732158368 606.992599398637 752.5029034258932 606.3803320000001 751.5685460000001 L 584.5416590000001 718.3060290000001 L 578.7398240000001 721.288117 L 617.9790050000001 793.9721370000001 L 618.1713170000002 794.5216 C 618.3361560000002 794.983649 618.5984000000002 795.403239 618.9355710000002 795.7479020000001 C 619.5307563482717 796.3671136445478 620.3500647494243 796.7207911251147 621.2088995060758 796.729248093118 C 622.0677342627274 796.7377050611213 622.8938484598089 796.4002300993246 623.5011120000003 795.792859 L 674.4538540000003 745.302166 C 673.1629184203878 744.2424681128181 671.8565540640521 743.2017064907423 670.5351800000003 742.1802150000001 C 670.4527600000004 742.117776 670.3728390000003 742.0528390000001 670.2879220000003 741.9928980000001 C 658.8840590000003 744.3530930000001 650.0576780000004 748.0344980000001 643.7613270000003 752.9122340000001 z" stroke-linecap="round" />
</g>
		<g transform="matrix(0.25 0 0 0.25 -27.4 -15.78)"  >
<path style="stroke: none; stroke-width: 1; stroke-dasharray: none; stroke-linecap: butt; stroke-dashoffset: 0; stroke-linejoin: miter; stroke-miterlimit: 4; fill: rgb(61,150,200); fill-rule: nonzero; opacity: 1;" vector-effect="non-scaling-stroke"  transform=" translate(-378.74, -456.63)" d="M 433.9712 510.666302 C 356.272078 504.25256499999995 329.16604900000004 488.777678 323.961132 467.90056599999997 C 318.756215 447.02345399999996 359.436488 424.348098 433.80636100000004 402.599337" stroke-linecap="round" />
</g>
		<g transform="matrix(0.25 0 0 0.25 -27.15 -16.39)"  >
<path style="stroke: none; stroke-width: 1; stroke-dasharray: none; stroke-linecap: butt; stroke-dashoffset: 0; stroke-linejoin: miter; stroke-miterlimit: 4; fill: rgb(82,79,117); fill-rule: nonzero; opacity: 1;" vector-effect="non-scaling-stroke"  transform=" translate(-379.76, -454.2)" d="M 436.348878 500.666068 C 367.213893 498.590595 336.853541 487.531395 331.191571 469.016976 C 326.973191 455.215454 362.31118100000003 431.998127 432.779863 407.317229 C 436.6855345943824 405.9488990733719 438.7424564266281 401.6734760943824 437.3741265 397.7678045 C 436.00579657337187 393.8621329056176 431.7303735943824 391.8052110733719 427.824702 393.173541 C 348.322341 421.018848 308.785951 446.993482 316.858068 473.397698 C 325.112507 500.39883 360.780175 513.391142 435.89682 515.643941 C 438.5884964258007 515.7507144730965 441.1303193713423 514.4043582962793 442.55421072487326 512.1176453783318 C 443.9781020784042 509.83093246038413 444.0648765451043 506.95586567276604 442.78148522122575 504.5874423014995 C 441.4980938973472 502.21901893023295 439.0420943458293 500.7218198638828 436.348878 500.66606800000005 z" stroke-linecap="round" />
</g>
		<g transform="matrix(0.25 0 0 0.25 -4.15 1.18)"  >
<path style="stroke: none; stroke-width: 1; stroke-dasharray: none; stroke-linecap: butt; stroke-dashoffset: 0; stroke-linejoin: miter; stroke-miterlimit: 4; fill: rgb(61,150,200); fill-rule: nonzero; opacity: 1;" vector-effect="non-scaling-stroke"  transform=" translate(-471.74, -524.49)" d="M 343.12242 707.096976 C 371.80191299999996 724.717269 433.23442 736.2884690000001 485.338537 736.7754930000001 C 507.234654 736.9777950000001 546.808508 732.2299320000001 604.072585 722.5319020000001 C 638.061892 712.996214 662.695336 700.3660480000001 666.663961 651.4363320000001 C 672.430829 580.2933080000001 673.37241 533.9260880000002 669.476215 512.3396680000001 C 666.3267910000001 494.85923900000006 660.77721 464.27160900000007 652.822478 420.5767800000001 C 641.396137 357.798088 586.989268 312.195122 523.511259 312.195122 L 493.835239 312.195122 C 430.779317 312.195122 376.60722 357.213659 364.733815 419.477854 L 335.996878 580.912702 C 333.579239 594.4944389999999 320.609405 603.543102 307.030166 601.1279609999999 C 303.94306326231333 600.5763588902307 300.9871069158171 599.4495540936092 298.316176 597.8062049999999 L 291.957385 593.8975219999999 C 286.402809 591.0328199999999 276.437541 594.9839609999999 272.623766 600.9156679999999 C 268.80998999999997 606.8473749999998 276.947044 636.8380879999999 283.42322 648.0970929999999 C 289.90189300000003 659.3411129999998 314.44043 689.4791809999998 343.12242000000003 707.0969759999998 z" stroke-linecap="round" />
</g>
		<g transform="matrix(0.25 0 0 0.25 -4.12 1.19)"  >
<path style="stroke: none; stroke-width: 1; stroke-dasharray: none; stroke-linecap: butt; stroke-dashoffset: 0; stroke-linejoin: miter; stroke-miterlimit: 4; fill: rgb(82,79,117); fill-rule: nonzero; opacity: 1;" vector-effect="non-scaling-stroke"  transform=" translate(-471.87, -524.49)" d="M 339.198751 713.483239 C 314.113249 698.07079 287.077151 669.461229 276.92706300000003 651.8234540000001 C 268.45533600000005 637.097834 260.717892 605.566127 266.319922 596.8521370000001 C 272.166712 587.75602 286.21549300000004 582.501152 295.38903400000004 587.2265370000001 L 302.242341 591.4199410000001 C 307.16926022565 594.4528991267507 313.2775782498099 594.8519783430532 318.5572396708984 592.4858542268305 C 323.836901091987 590.1197301106077 327.60406754537445 585.2948705046055 328.619083 579.5989850000001 L 357.373502 418.0742240000001 C 369.918751 352.283473 427.177834 304.702439 493.835239 304.702439 L 523.511259 304.702439 C 590.61323 304.702439 648.122069 352.902868 660.19278 419.23559 C 668.147512 462.935414 673.697092 493.525541 676.849015 511.013463 C 680.895064 533.466536 679.948488 580.22837 674.126673 652.043239 C 672.101151 677.041327 664.795785 694.6965849999999 651.813463 707.159415 C 641.014009 717.524293 627.5171899999999 723.735727 606.090615 729.744859 C 547.642693 739.685152 507.73416599999996 744.472976 485.26360999999997 744.26318 C 429.672898 743.7511800000001 368.20043 731.298341 339.19875099999996 713.483239 z M 279.257288 608.560702 C 279.537015 611.830009 280.301268 616.063375 281.442654 620.716332 C 283.715434 629.979786 287.16206900000003 639.555434 289.919376 644.350751 C 298.85564899999997 659.8780879999999 324.153444 686.6494439999999 347.046088 700.710712 C 373.292956 716.837463 432.290342 728.783297 485.40846799999997 729.2778149999999 C 506.68019499999997 729.4726249999999 545.799492 724.7896979999999 602.42919 715.2040589999999 C 621.4531119999999 709.8417959999999 632.886946 704.5469659999999 641.438595 696.3424779999999 C 651.558712 686.6244679999999 657.442966 672.400858 659.193756 650.8194339999999 C 664.905678 580.3457559999999 665.832273 534.3781459999999 662.100917 513.6583799999999 C 658.948995 496.18294599999984 653.401912 465.60031199999986 645.44718 421.90797999999984 C 634.672702 362.695805 583.360312 319.687805 523.511259 319.687805 L 493.835239 319.687805 C 434.383298 319.687805 383.295688 362.143844 372.11161 420.791571 L 343.374673 582.223922 C 340.232741 599.8766830000001 323.37170699999996 611.642693 305.71894599999996 608.500761 C 301.70458039671325 607.7869178243615 297.86100259708473 606.3218502600895 294.39000999999996 604.1824780000001 L 288.38337599999994 600.4860880000001 C 286.6126049999999 599.8267320000001 281.37521999999996 601.7823220000001 279.22481999999997 604.5396290000001 C 279.10493699999995 605.7509460000001 279.124918 607.0147120000001 279.25728799999996 608.5607020000001 z" stroke-linecap="round" />
</g>
		<g transform="matrix(0.25 0 0 0.25 15.56 5.15)"  >
<path style="stroke: none; stroke-width: 1; stroke-dasharray: none; stroke-linecap: butt; stroke-dashoffset: 0; stroke-linejoin: miter; stroke-miterlimit: 4; fill: rgb(255,255,255); fill-rule: nonzero; opacity: 1;" vector-effect="non-scaling-stroke"  transform=" translate(-550.58, -540.37)" d="M 645.869268 424.308137 C 651.2924323243375 453.818050722532 656.6904962768566 483.33257173156153 662.0634539999861 512.851668000003 C 665.849756 533.6788290000001 664.935649 578.417639 659.3261269999999 647.0656 C 655.4673949999999 694.276995 631.5157859999999 706.465093 598.4580679999999 715.666107 C 542.7749459999999 725.024468 504.2850339999999 729.607492 482.9908289999999 729.410185 C 468.7072779999999 729.2778139999999 452.7778339999999 727.904156 436.8109269999999 725.7712389999999 C 439.22113246294515 722.8820403943548 442.04269492194226 720.3625776896108 445.1852489999999 718.2935409999999 C 470.0334829999999 701.9245259999999 485.4684099999999 654.7730729999998 487.89853699999986 639.9850149999999 C 492.83871299999987 609.9268689999999 493.34571699999987 573.4175219999998 493.01603899999986 467.3061459999999 C 492.8412099999999 410.7488779999999 533.4540489999998 362.3036869999999 589.1746339999999 352.6056589999999 C 594.1868629492361 351.7316580859102 599.2670283030438 351.3062212578052 604.3548099999997 351.3343999999999 C 626.0548133643736 370.25804680665016 640.6909743941856 395.9853576552984 645.869268 424.308137 z" stroke-linecap="round" />
</g>
		<g transform="matrix(0.25 0 0 0.25 41.51 -25)"  >
<path style="stroke: none; stroke-width: 1; stroke-dasharray: none; stroke-linecap: butt; stroke-dashoffset: 0; stroke-linejoin: miter; stroke-miterlimit: 4; fill: rgb(255,255,255); fill-rule: nonzero; opacity: 1;" vector-effect="non-scaling-stroke"  transform=" translate(-654.39, -419.73)" d="M 618.146341 419.732605 C 618.146341 444.754283118355 634.3713670571846 465.038361 654.385951 465.038361 C 674.4005349428155 465.038361 690.6255610000001 444.754283118355 690.6255610000001 419.732605 C 690.6255615104982 403.54641693095095 683.7183309774505 388.58976209645436 672.5057564124891 380.4966678776943 C 661.2931818475276 372.40357365893425 647.4787201524725 372.40357365893425 636.2661455875111 380.4966678776943 C 625.0535710225497 388.58976209645436 618.146340489502 403.54641693095095 618.1463410000001 419.732605 Z" stroke-linecap="round" />
</g>
		<g transform="matrix(0.25 0 0 0.25 41.89 -25.62)"  >
<path style="stroke: none; stroke-width: 1; stroke-dasharray: none; stroke-linecap: butt; stroke-dashoffset: 0; stroke-linejoin: miter; stroke-miterlimit: 4; fill: rgb(82,79,117); fill-rule: nonzero; opacity: 1;" vector-effect="non-scaling-stroke"  transform=" translate(-655.9, -417.29)" d="M 655.901971 460.944859 C 677.056312 460.944859 693.610147 441.131708 693.610146 417.292488 C 693.610145 393.453268 677.053814 373.640117 655.901971 373.640117 C 634.74763 373.640117 618.193795 393.453268 618.193795 417.292488 C 618.193795 441.131708 634.752624 460.944859 655.901971 460.944859 z M 655.901971 445.959493 C 643.67641 445.959493 633.179161 433.391766 633.179161 417.292488 C 633.179161 401.19320999999997 643.681405 388.625483 655.901971 388.625483 C 668.122537 388.625483 678.624781 401.19320999999997 678.62478 417.292488 C 678.624779 433.391766 668.122536 445.959493 655.901971 445.959493 z" stroke-linecap="round" />
</g>
		<g transform="matrix(0.25 0 0 0.25 44.21 -25.62)"  >
<path style="stroke: none; stroke-width: 1; stroke-dasharray: none; stroke-linecap: butt; stroke-dashoffset: 0; stroke-linejoin: miter; stroke-miterlimit: 4; fill: rgb(35,35,35); fill-rule: nonzero; opacity: 1;" vector-effect="non-scaling-stroke"  transform=" translate(-665.2, -417.29)" d="M 672.238517 424.153288 C 670.527688 426.381112 668.012644 427.789737 665.20039 427.789737 C 660.062907 427.789737 655.90197 423.089327 655.901971 417.292488 C 655.901972 411.49564899999996 660.062908 406.795239 665.20039 406.795239 C 670.272936 406.795239 674.39641 411.380761 674.4988099999999 417.080195 L 667.6055409999999 418.21159 L 672.2385169999999 424.155785 z" stroke-linecap="round" />
</g>
		<g transform="matrix(0.25 0 0 0.25 43.88 -9.05)"  >
<path style="stroke: none; stroke-width: 1; stroke-dasharray: none; stroke-linecap: butt; stroke-dashoffset: 0; stroke-linejoin: miter; stroke-miterlimit: 4; fill: rgb(255,198,46); fill-rule: nonzero; opacity: 1;" vector-effect="non-scaling-stroke"  transform=" translate(-663.86, -483.56)" d="M 625.996176 530.869073 C 638.838635 529.865053 649.947786 529.4929169999999 669.7859119999999 514.889678 C 678.057834 508.798127 693.0407019999999 496.55758000000003 700.028878 488.163278 C 706.6474149999999 480.21603899999997 704.53198 470.612917 700.028878 464.246634 C 690.767922 451.15691699999996 676.916449 450.412644 661.2242729999999 445.512429 C 655.1976579999999 443.63176599999997 641.288741 439.628175 623.488624 436.24398 C 628.044175 449.838204 630.054712 466.22220400000003 629.507746 485.39598 C 629.0332089999999 502.134634 627.8643509999999 517.292331 625.996176 530.869073 z" stroke-linecap="round" />
</g>
		<g transform="matrix(0.25 0 0 0.25 43.76 -11.15)"  >
<path style="stroke: none; stroke-width: 1; stroke-dasharray: none; stroke-linecap: butt; stroke-dashoffset: 0; stroke-linejoin: miter; stroke-miterlimit: 4; fill: rgb(82,79,117); fill-rule: nonzero; opacity: 1;" vector-effect="non-scaling-stroke"  transform=" translate(-663.39, -475.15)" d="M 636.913015 478.247961 C 638.606361 463.672195 638.733737 450.44761 637.272663 438.566712 C 646.6310239999999 441.533814 655.007843 444.598322 661.693815 447.348137 C 663.537015 448.104898 665.430166 448.834186 667.6255219999999 449.6384 C 668.4746929999999 449.95059499999996 669.3363509999999 450.260293 670.4452679999999 450.659902 L 673.1476289999999 451.628956 C 686.094985 456.289405 691.0776189999999 459.35141500000003 695.0936979999999 466.239688 C 698.1706929999999 471.509542 698.0358249999999 477.111571 694.1621069999999 481.010263 C 688.0730529999998 487.14677 674.2390629999999 497.104546 663.1224199999999 503.880429 C 650.2599809999999 511.720273 641.8931519999999 514.37518 631.268527 514.8497169999999 C 633.496351 503.63816599999996 635.374517 491.44007799999997 636.913015 478.2479609999999 z M 621.937639 529.8725459999999 L 623.573541 529.8900289999999 C 625.8063609999999 529.9125069999999 626.990204 529.92 628.356371 529.9075119999999 C 643.151922 529.7851319999999 654.493347 526.6881559999999 670.922302 516.6729369999999 C 682.990517 509.3201169999999 697.658692 498.7579319999999 704.79922 491.56495599999994 C 713.950283 482.3414629999999 714.267474 469.35664399999996 708.033561 458.68206799999996 C 701.744702 447.915083 694.222049 443.28710199999995 678.217678 437.52772699999997 L 675.500332 436.553678 C 674.421386 436.166556 673.592195 435.866849 672.78798 435.569639 C 670.9743297783823 434.9106016111943 669.174060147991 434.2153078677331 667.388254 433.48417599999993 C 657.542869 429.438127 644.3782249999999 424.800156 629.7849759999999 420.681678 C 624.2753559999999 419.125698 619.1253859999999 424.078361 620.4690729999999 429.647922 C 623.6010139999999 442.660215 624.1404879999999 458.28745399999997 622.0250539999998 476.517151 C 620.1219129999998 492.898653 617.6792979999998 507.631766 614.6972099999998 520.716488 C 614.1936008742429 522.9279945796526 614.7188584716588 525.2485938551297 616.1257195709861 527.0276737719944 C 617.5325806703135 528.8067536888592 619.6696015889416 529.8528025091031 621.9376389999998 529.872546 z" stroke-linecap="round" />
</g>
		<g transform="matrix(0.25 0 0 0.25 22.16 -23.76)"  >
<path style="stroke: none; stroke-width: 1; stroke-dasharray: none; stroke-linecap: butt; stroke-dashoffset: 0; stroke-linejoin: miter; stroke-miterlimit: 4; fill: rgb(255,255,255); fill-rule: nonzero; opacity: 1;" vector-effect="non-scaling-stroke"  transform=" translate(-576.96, -424.73)" d="M 540.721951 424.727727 C 540.7219504895019 440.91391506904904 547.6291810225496 455.87056990354563 558.841755587511 463.9636641223057 C 570.0543301524724 472.05675834106574 583.8687918475275 472.05675834106574 595.0813664124889 463.9636641223057 C 606.2939409774503 455.87056990354563 613.201171510498 440.91391506904904 613.2011709999999 424.727727 C 613.201171510498 408.541538930951 606.2939409774503 393.5848840964544 595.0813664124889 385.4917898776943 C 583.8687918475275 377.3986956589343 570.0543301524724 377.3986956589343 558.841755587511 385.4917898776943 C 547.6291810225496 393.5848840964544 540.7219504895019 408.541538930951 540.721951 424.727727 Z" stroke-linecap="round" />
</g>
		<g transform="matrix(0.25 0 0 0.25 22.51 -23.32)"  >
<path style="stroke: none; stroke-width: 1; stroke-dasharray: none; stroke-linecap: butt; stroke-dashoffset: 0; stroke-linejoin: miter; stroke-miterlimit: 4; fill: rgb(82,79,117); fill-rule: nonzero; opacity: 1;" vector-effect="non-scaling-stroke"  transform=" translate(-578.39, -426.51)" d="M 578.390166 478.325385 C 605.139044 478.325385 626.5556290000001 454.98817499999996 626.5556290000001 426.508488 C 626.5556290000001 398.026303 605.1415410000001 374.689093 578.390166 374.689093 C 551.636293 374.689093 530.222205 398.026303 530.222205 426.508488 C 530.222205 454.988176 551.636293 478.325386 578.390166 478.325385 z M 578.390166 463.34002 C 560.2179120000001 463.34002 545.207571 446.98599099999996 545.207571 426.508488 C 545.207571 406.028488 560.215415 389.674459 578.390166 389.674459 C 596.564917 389.674459 611.5702640000001 406.02848800000004 611.5702630000001 426.508488 C 611.5702630000001 446.98599 596.559922 463.34002 578.390166 463.34002 z" stroke-linecap="round" />
</g>
		<g transform="matrix(0.25 0 0 0.25 25.42 -22.73)"  >
<path style="stroke: none; stroke-width: 1; stroke-dasharray: none; stroke-linecap: butt; stroke-dashoffset: 0; stroke-linejoin: miter; stroke-miterlimit: 4; fill: rgb(35,35,35); fill-rule: nonzero; opacity: 1;" vector-effect="non-scaling-stroke"  transform=" translate(-590.01, -428.84)" d="M 599.689366 437.987278 C 597.3416589999999 440.95438 593.8800389999999 442.835044 590.011317 442.835044 C 582.950712 442.835044 577.223805 436.56866399999996 577.223805 428.838712 C 577.223805 421.10876 582.950712 414.84238 590.011317 414.84238 C 596.987005 414.84238 602.653971 420.956409 602.791337 428.556488 L 593.313093 430.065015 L 599.689366 437.987278 z" stroke-linecap="round" />
</g>
		<g transform="matrix(0.25 0 0 0.25 -38.04 19.77)"  >
<path style="stroke: none; stroke-width: 1; stroke-dasharray: none; stroke-linecap: butt; stroke-dashoffset: 0; stroke-linejoin: miter; stroke-miterlimit: 4; fill: rgb(82,79,117); fill-rule: nonzero; opacity: 1;" vector-effect="non-scaling-stroke"  transform=" translate(-336.21, -598.83)" d="M 308.815922 609.225054 C 321.75079 611.92242 332.292995 612.826537 340.584898 611.85998 C 348.614557 610.9183999999999 354.823493 608.2809749999999 360.36558 604.147512 C 362.16132600000003 602.806322 366.214868 599.274771 366.609483 598.990049 C 368.2193963494121 597.8257014138838 369.3005425511285 596.0692415544415 369.6148642282627 594.1074239846371 C 369.92918590539693 592.1456064148327 369.45090928308974 590.1392964138926 368.285346 588.530263 C 367.1209593123893 586.9196319959473 365.36401299163725 585.8379944994884 363.40158685267517 585.5236503590633 C 361.43916071371314 585.2093062186382 359.4322708031913 585.6880472078957 357.823063 586.8543999999999 C 356.724136 587.6486239999999 352.560702 591.27758 351.404332 592.1367409999999 C 347.885269 594.761678 344.126439 596.3576189999999 338.839102 596.9770149999999 C 332.397892 597.731278 323.361717 596.9520389999999 311.87043900000003 594.556878 C 309.228259225988 593.9558386869093 306.46743949403157 594.8281906966707 304.6503079550086 596.838264124177 C 302.83317641598563 598.8483375516834 302.2429055175337 601.6828928761983 303.1066239579924 604.2512294331336 C 303.970342398451 606.8195659900689 306.15345273145937 608.7214473994126 308.81592200000006 609.225054 z" stroke-linecap="round" />
</g>
		<g transform="matrix(0.25 0 0 0.25 10.45 -54.16)"  >
<path style="stroke: none; stroke-width: 1; stroke-dasharray: none; stroke-linecap: butt; stroke-dashoffset: 0; stroke-linejoin: miter; stroke-miterlimit: 4; fill: rgb(255,208,79); fill-rule: nonzero; opacity: 1;" vector-effect="non-scaling-stroke"  transform=" translate(-530.12, -303.11)" d="M 564.556646 345.48652 C 612.8303539999999 329.80305699999997 643.952503 280.457835 635.773337 255.259482 C 627.5869339999999 230.06306899999998 578.161293 273.822652 529.893703 289.50964799999997 C 481.62481999999994 305.19181799999996 415.671609 315.90073099999995 423.86042499999996 341.096498 C 432.04923999999994 366.292265 516.285351 361.169337 564.556646 345.48652 z" stroke-linecap="round" />
</g>
		<g transform="matrix(0.25 0 0 0.25 10.64 -53.91)"  >
<path style="stroke: none; stroke-width: 1; stroke-dasharray: none; stroke-linecap: butt; stroke-dashoffset: 0; stroke-linejoin: miter; stroke-miterlimit: 4; fill: rgb(82,79,117); fill-rule: nonzero; opacity: 1;" vector-effect="non-scaling-stroke"  transform=" translate(-530.9, -304.16)" d="M 564.877269 354.209972 C 539.367931 361.045178 505.21663499999994 364.510112 476.617667 363.105254 C 442.534385 361.429761 419.821959 353.594314 415.422276 337.164825 C 411.62651900000003 322.998868 421.206865 312.897193 439.999821 305.22684200000003 C 452.480913 300.13204800000005 464.870147 296.92354600000004 496.087394 289.92931300000004 L 500.728723 288.887354 C 513.429201 286.029846 521.475203 284.116979 529.303631 282.019359 C 535.448163 280.37293700000004 541.943411 278.182634 548.979359 275.433746 C 556.9560260000001 272.316437 564.7628840000001 268.864536 576.132822 263.550341 C 603.9117640000001 250.56591500000002 607.625389 248.937364 616.779723 246.499982 C 631.660761 242.535891 642.532468 245.706896 646.004197 258.653916 C 654.7463319999999 291.28000699999996 614.108313 341.018554 564.877269 354.209972 z M 560.996359 339.735866 C 582.414167 333.996982 602.155186 320.66855799999996 616.002293 303.717044 C 628.4538650000001 288.476252 634.185097 272.45309 631.528325 262.53788499999996 C 630.715133 259.50301199999996 628.555664 258.87413399999997 620.634743 260.98361099999994 C 612.7813699999999 263.07498699999996 608.9571199999999 264.75386599999996 582.473516 277.1300539999999 C 570.834895 282.57054099999993 562.780893 286.1326199999999 554.43228 289.3961339999999 C 546.909409 292.3349639999999 539.901473 294.6962539999999 533.178597 296.5002279999999 C 525.10651 298.6631369999999 516.8975819999999 300.6144889999999 504.013583 303.5108289999999 L 499.360191 304.5560189999999 C 469.09238 311.3398079999999 457.04089 314.4578119999999 445.659694 319.1027499999999 C 433.031788 324.2575679999999 428.697625 328.8293959999999 429.892849 333.2900319999999 C 434.424228 350.2013669999999 508.37581 353.8354999999999 560.996359 339.7358659999999 z" stroke-linecap="round" />
</g>
		<g transform="matrix(0.25 0 0 0.25 -7.1 -51.49)"  >
<path style="stroke: none; stroke-width: 1; stroke-dasharray: none; stroke-linecap: butt; stroke-dashoffset: 0; stroke-linejoin: miter; stroke-miterlimit: 4; fill: rgb(253,107,77); fill-rule: nonzero; opacity: 1;" vector-effect="non-scaling-stroke"  transform=" translate(-459.95, -313.79)" d="M 495.946978 342.913607 C 528.853675 326.398758 555.535311 295.86726300000004 550.306095 278.744721 C 545.078645 261.61912 509.140389 234.27114500000002 437.99144 256.497718 C 366.833487 278.729289 363.946412 345.626099 372.130403 370.82315800000003 C 380.319218 396.018925 463.034811 359.427336 495.946978 342.913607 z" stroke-linecap="round" />
</g>
		<g transform="matrix(0.25 0 0 0.25 -6.98 -51.72)"  >
<path style="stroke: none; stroke-width: 1; stroke-dasharray: none; stroke-linecap: butt; stroke-dashoffset: 0; stroke-linejoin: miter; stroke-miterlimit: 4; fill: rgb(255,139,116); fill-rule: nonzero; opacity: 1;" vector-effect="non-scaling-stroke"  transform=" translate(-460.43, -312.87)" d="M 426.143717 248.535845 C 446.712502 261.977383 467.32674099999997 274.951664 478.100129 286.035294 C 487.210846 295.41057600000005 499.059086 312.406625 513.643729 337.02891300000005 C 516.303826 341.52367200000003 452.14262 374.0899820000001 450.753472 370.922427 C 440.599193 347.77109 434.003024 329.088501 430.97155699999996 314.870307 C 427.52268599999996 298.70835200000005 425.63575599999996 270.127804 426.143717 248.53584500000002 z M 429.34977599999996 248.535225 C 460.08100399999995 240.74038 484.83246099999997 237.831606 504.98240699999997 239.124146 C 525.131707 240.414274 541.2701959999999 257.68287 562.329031 276.234243 L 556.378583 308.03699 C 538.4807940000001 286.557156 523.197087 270.51008 510.53051800000003 259.897527 C 501.68181300000003 252.48437200000004 485.78461000000004 247.14602500000004 462.84067400000004 243.87942700000002 C 452.94312800000006 242.47197200000002 441.86910000000006 249.170364 429.349776 248.53522500000003 z M 415.33198799999997 252.999752 C 396.105319 290.529224 389.276858 306.944643 392.130925 323.222019 C 394.98434499999996 339.496982 400.350567 360.73022199999997 408.22652999999997 386.919972 L 362.074693 380.289435 C 361.857703 375.349486 358.523364 371.001776 358.536195 366.39843900000005 C 358.607598 340.031376 362.45824500000003 319.14168800000004 370.082189 303.73614000000003 C 379.040971 285.64065300000004 393.217129 275.716721 415.331988 252.99975200000003 z" stroke-linecap="round" />
</g>
		<g transform="matrix(0.25 0 0 0.25 -7.24 -51.73)"  >
<path style="stroke: none; stroke-width: 1; stroke-dasharray: none; stroke-linecap: butt; stroke-dashoffset: 0; stroke-linejoin: miter; stroke-miterlimit: 4; fill: rgb(82,79,117); fill-rule: nonzero; opacity: 1;" vector-effect="non-scaling-stroke"  transform=" translate(-459.4, -312.84)" d="M 493.997155 344.98746 C 527.726281 330.219933 555.97036 301.128877 551.642584 283.751866 C 547.320279 266.375975 512.8625030000001 237.180749 440.63871400000005 255.65651400000002 C 368.41975 274.130986 362.03545800000006 340.790981 368.88893700000006 366.378164 C 375.74853400000006 391.968879 460.265616 359.75563300000005 493.997155 344.98746000000006 z M 425.077848 385.339404 C 409.65123600000004 389.284199 396.59208 391.275946 386.03436800000003 390.888309 C 370.21830600000004 390.301359 358.143361 384.174136 354.415478 370.261487 C 349.381834 351.475671 351.371399 325.078158 361.40024700000004 302.310659 C 374.49730000000005 272.572324 399.73294400000003 250.655869 436.930381 241.141338 C 472.68964600000004 231.991478 503.246631 232.925986 527.096906 242.31564 C 547.6990519999999 250.429525 562.398969 264.905803 566.188915 280.130854 C 572.819589 306.806832 540.1990119999999 341.122306 500.00596899999994 358.718156 C 476.219775 369.127871 448.28202 379.406289 425.077848 385.339404 z" stroke-linecap="round" />
</g>
		<g transform="matrix(0.25 0 0 0.25 -15.57 -68.56)"  >
<path style="stroke: none; stroke-width: 1; stroke-dasharray: none; stroke-linecap: butt; stroke-dashoffset: 0; stroke-linejoin: miter; stroke-miterlimit: 4; fill: rgb(255,208,79); fill-rule: nonzero; opacity: 1;" vector-effect="non-scaling-stroke"  transform=" translate(-426.06, -245.52)" d="M 440.783548 241.577543 C 439.37852625751816 236.32928257020873 435.2721279111663 232.23158790348674 430.0115916683471 230.8284182713699 C 424.75105542552785 229.4252486392531 419.135827343145 230.92984436131803 415.28165399694797 234.7752928918689 C 411.4274806507509 238.62074142241977 409.9200824962249 244.22264822012602 411.327428 249.47028600000002 C 412.73244974248183 254.71854642979125 416.8388480888337 258.81624109651324 422.0993843316529 260.21941072863007 C 427.3599205744721 261.6225803607469 432.97514865685497 260.11798463868195 436.829322003052 256.2725361081311 C 440.6834953492491 252.42708757758024 442.1908935037751 246.825180779874 440.783548 241.577543 Z" stroke-linecap="round" />
</g>
		<g transform="matrix(0.25 0 0 0.25 -15.57 -68.56)"  >
<path style="stroke: none; stroke-width: 1; stroke-dasharray: none; stroke-linecap: butt; stroke-dashoffset: 0; stroke-linejoin: miter; stroke-miterlimit: 4; fill: rgb(82,79,117); fill-rule: nonzero; opacity: 1;" vector-effect="non-scaling-stroke"  transform=" translate(-426.06, -245.52)" d="M 431.286116 265.035234 C 420.490364 267.927947 409.39552399999997 261.540692 406.507336 250.761826 C 403.619148 239.98296100000002 410.036345 228.903369 420.829685 226.011302 C 431.623025 223.119235 442.720277 229.505844 445.60846499999997 240.28471 C 448.49906599999997 251.062929 442.079456 262.143167 431.286116 265.035234 z M 428.702863 255.384753 C 431.32495572373546 254.68765670816865 433.56273270254036 252.97748696732788 434.9239062847827 250.63046332642494 C 436.28507986702505 248.283439685522 436.65814923159024 245.49181908118135 435.96104299999996 242.86972899999998 C 435.2537095085422 240.25037945370624 433.5348116364726 238.01929999364683 431.18248899375305 236.66730483893815 C 428.8301663510335 235.31530968422945 426.0371099221603 234.95314779110058 423.417763 235.66049099999998 C 420.79466410554664 236.3571704916477 418.5559149748444 238.06765195696005 417.1943082908377 240.41542480845848 C 415.8327016068309 242.7631976599569 415.4598469650309 245.5558172060973 416.15781699999997 248.17857299999997 C 416.86578891101675 250.79775202470879 418.5852319954156 253.02841398608535 420.93788621287547 254.37983587555274 C 423.2905404303354 255.7312577650201 426.0836873582451 256.09273742631257 428.702863 255.38475299999996 z" stroke-linecap="round" />
</g>
		<g transform="matrix(0.25 0 0 0.25 -35.51 1.08)"  >
<path style="stroke: none; stroke-width: 1; stroke-dasharray: none; stroke-linecap: butt; stroke-dashoffset: 0; stroke-linejoin: miter; stroke-miterlimit: 4; fill: rgb(61,150,200); fill-rule: nonzero; opacity: 1;" vector-effect="non-scaling-stroke"  transform=" translate(-346.28, -524.06)" d="M 401.507902 578.095454 C 323.80878 571.681717 296.70275100000003 556.20683 291.497834 535.332215 C 286.292917 514.4576000000001 326.97319 491.77974700000004 401.34306300000003 470.030985" stroke-linecap="round" />
</g>
		<g transform="matrix(0.25 0 0 0.25 -35.44 0.86)"  >
<path style="stroke: none; stroke-width: 1; stroke-dasharray: none; stroke-linecap: butt; stroke-dashoffset: 0; stroke-linejoin: miter; stroke-miterlimit: 4; fill: rgb(82,79,117); fill-rule: nonzero; opacity: 1;" vector-effect="non-scaling-stroke"  transform=" translate(-346.59, -523.23)" d="M 402.726712 569.798556 C 333.706614 565.3079409999999 303.748371 553.199766 298.738263 534.493034 C 295.001912 520.554146 331.13162900000003 498.58310199999994 402.419512 476.37478999999996 C 405.0109085047176 475.60816839995124 406.9886960804714 473.5054907229953 407.59540231918436 470.8720610083019 C 408.20210855789725 468.2386312936084 407.34371581892873 465.48253640887367 405.3489797396553 463.6593324991673 C 403.35424366038194 461.8361285894609 400.5322765721219 461.2283466707171 397.963863 462.06876099999994 C 317.534907 487.12679 277.116878 511.70279 284.2624 538.374244 C 291.570263 565.64761 326.763395 579.8737169999999 401.752663 584.746459 C 405.88041243442495 585.015435204144 409.444662795856 581.887281434425 409.71363899999994 577.7595319999999 C 409.98261520414394 573.631782565575 406.85446143442493 570.067532204144 402.72671199999996 569.798556 z" stroke-linecap="round" />
</g>
		<g transform="matrix(0.25 0 0 0.25 -15.31 14.92)"  >
<path style="stroke: none; stroke-width: 1; stroke-dasharray: none; stroke-linecap: butt; stroke-dashoffset: 0; stroke-linejoin: miter; stroke-miterlimit: 4; fill: rgb(82,79,117); fill-rule: nonzero; opacity: 1;" vector-effect="non-scaling-stroke"  transform=" translate(-427.09, -579.43)" d="M 427.087922 579.434146 M 417.097678 579.434146 C 417.09767783292136 583.0033165273722 419.00180754570175 586.3013661718037 422.09279986499837 588.0859514837213 C 425.18379218429493 589.8705367956388 428.992051815705 589.8705367956388 432.08304413500156 588.0859514837213 C 435.1740364542982 586.3013661718037 437.07816616707856 583.0033165273722 437.07816599999995 579.434146 C 437.07816616707856 575.8649754726279 435.1740364542982 572.5669258281964 432.0830441350016 570.7823405162789 C 428.992051815705 568.9977552043613 425.18379218429493 568.9977552043613 422.09279986499837 570.7823405162789 C 419.00180754570175 572.5669258281964 417.09767783292136 575.8649754726279 417.097678 579.434146 Z" stroke-linecap="round" />
</g>
</g>
</g>
</svg>